<?xml version="1.0" encoding="UTF-8"?>
<svg id="Layer_1" data-name="Layer 1" xmlns="http://www.w3.org/2000/svg" xmlns:xlink="http://www.w3.org/1999/xlink" version="1.1" viewBox="0 0 720 720">
  <defs>
    <style>
      .cls-1 {
        clip-path: url(#clippath);
      }

      .cls-2 {
        fill: none;
      }

      .cls-2, .cls-3 {
        stroke-width: 0px;
      }

      .cls-3 {
        fill: #000;
      }
    </style>
    <clipPath id="clippath">
      <rect class="cls-2" width="720" height="720"/>
    </clipPath>
  </defs>
  <g class="cls-1">
    <path class="cls-3" d="M640,360l-220.9,220.9c-3.9-3.7-8.2-7-12.7-9.9l211-211-211-211c4.5-2.9,8.8-6.2,12.7-9.9l220.9,220.9ZM428.7,591.6c2.3,3,4.3,6.1,6.2,9.3,18-1.7,36.5,1,53.1,8.2,13.4,5.8,28,8.7,42.6,8.7s29.3-2.9,42.6-8.7c2.3-1,4.9-2,7.5-2.9l-7.8-7.8c-1.3.5-2.5,1-3.7,1.5-24.2,10.6-53.1,10.6-77.3,0-19.6-8.5-41.9-11.3-63.2-8.3ZM419.8,389.6c0-.1,0-5.1-1.1-12.5l-48.2,48.2c2.9,1.7,5.3,4.2,7.1,7.1l42.2-42.2v-.6h0ZM491.9,548.9c-6.5-2.8-13.2-5-20.1-6.6l-8.5,8.5c8.5,1.4,16.8,3.8,24.6,7.2,16.5,7.2,34.9,9.9,52.9,8.2l-9.5-9.5c-13.5.2-27-2.4-39.4-7.8ZM554.5,394.8h10v-23.2h-10v23.2ZM357,453.1c2,.6,4.1.6,6,0l23.4,23.4,7.1-7.1-23.4-23.4c1.1-3.6.2-7.7-2.6-10.5-4.1-4.1-10.8-4.1-15,0-2.8,2.8-3.7,6.9-2.6,10.5l-23.4,23.4,7.1,7.1,23.4-23.4ZM147,598.5l-7.8,7.8c2.5.9,5,1.9,7.5,2.9,26.9,11.6,58.8,11.6,85.3,0,16.5-7.2,35-10,53.1-8.2,1.9-3.2,3.9-6.4,6.2-9.3-21.3-3-43.6-.2-63.2,8.4-24,10.5-52.9,10.5-77.3,0-1.3-.7-2.6-1.2-3.8-1.6ZM512.7,218.6l151-150.9-11.3-11.3-151,150.9,11.3,11.3ZM155.5,394.8h10v-23.2h-10v23.2ZM291.3,128.4c-2.3-3-4.3-6.1-6.2-9.3-18,1.7-36.5-1-53.1-8.2-13.4-5.8-28-8.7-42.6-8.7s-29.3,2.9-42.6,8.7c-2.3,1-4.9,2-7.5,2.9l7.8,7.8c1.3-.5,2.5-1,3.7-1.5,24.2-10.6,53.1-10.6,77.3,0,19.6,8.5,41.9,11.3,63.2,8.3ZM313.6,571l-211-211,211-211c-4.5-2.9-8.8-6.2-12.7-9.9l-188.1,188-32.8,32.9,220.9,220.9c3.9-3.7,8.2-7,12.7-9.9ZM228.1,171.1c6.5,2.8,13.2,5,20.1,6.6l8.5-8.5c-8.5-1.4-16.8-3.8-24.6-7.2-16.5-7.2-34.9-9.9-52.9-8.2l9.5,9.5c13.5-.2,27,2.4,39.4,7.8ZM564.5,325.2h-10v23.2h10v-23.2ZM360,250c-2.6,0-5.2.2-7.6.4-9.1,10.9-21.6,31.2-26.8,64.4,9-5.5,20.3-8.9,34.4-8.9s25.4,3.4,34.4,8.9c-5.2-33.2-17.7-53.5-26.8-64.4-2.4-.3-5-.4-7.6-.4ZM256.7,550.8l-8.5-8.5c-6.9,1.6-13.7,3.7-20.1,6.6-12.3,5.4-25.9,8-39.4,7.9l-9.5,9.5c3.4.3,6.8.5,10.3.5,14.6,0,29.3-2.9,42.6-8.7,7.8-3.5,16.1-5.9,24.6-7.3ZM165.5,325.2h-10v23.2h10v-23.2ZM297.1,305.8h-6.9c-11.1,0-20.2,10.4-20.2,27.1v30.4c0,16.7,9,26.4,20.2,26.4,0,0,0-41.3,24.1-65.9,3.4-32.7,13.2-55.1,22.7-69.6-21.3,8.5-33.3,29-39.9,51.6ZM429.8,389.6c11.1,0,20.2-9.6,20.2-26.4v-30.4c0-16.6-9-27.1-20.2-27.1h-6.9c-6.6-22.6-18.6-43.1-39.9-51.7,9.5,14.5,19.3,36.9,22.7,69.6,24.1,24.8,24.1,66,24.1,66ZM349.4,425.4l-48.2-48.2c-1.1,7.4-1.1,12.4-1.1,12.5v.6l42.2,42.2c1.8-3,4.2-5.4,7.1-7.1ZM207.3,501.4l-151,150.9,11.3,11.3,150.9-150.9-11.2-11.3ZM569.2,702.1c-24.2,10.6-53.1,10.6-77.3,0-19.1-8.4-40.7-11.2-61.5-8.6-3,4.3-6.5,8.3-10.2,12,22.4-5.3,46.7-3.4,67.7,5.8,13.4,5.8,28,8.7,42.6,8.7s29.3-2.9,42.6-8.7c11-4.8,25.5-8.7,41.2-9.7l10.2-10.2c-21-.4-40.9,4.4-55.3,10.7ZM436.3,643.7c0,42.1-34.2,76.3-76.3,76.3s-76.3-34.2-76.3-76.3,34.2-76.3,76.3-76.3,76.3,34.2,76.3,76.3ZM365.8,643.2c2.7,3.6,9,11,19.1,18.4,4.4-6.4,22.9-36.3,13.3-72-8-5.7-17.4-9.6-27.5-11.3,7.5,31.8-1.3,56.7-4.9,64.9ZM297.5,621.6c27-19.8,57.4-19,66.1-18.3,0-7.8-.9-16.5-3.4-25.8h-.2c-28.8,0-53.3,18.4-62.5,44.1ZM298,667.1c23.8-22.4,49.8-27.2,58.7-28.2,1.7-4.1,5.1-13.3,6.4-25.7-7.7-.6-42.9-1.6-69.1,24.5-.2,2-.3,4-.3,6,0,8.2,1.5,16.1,4.3,23.4ZM372.1,708.9c-30.6-13.5-45.2-40.2-48.9-48.1-6.8,3.9-13.9,9-20.7,15.8,11.5,20,32.9,33.4,57.5,33.4s8.1-.4,12.1-1.1ZM411.3,685.7c-31.3-9.4-48.4-29.5-53.7-36.7-4.4.5-14,2.2-25.5,7.3,3.4,7,20,38,55.7,47.6,9.1-4.3,17.2-10.5,23.5-18.2ZM417.3,677c5.7-9.8,9-21.2,9-33.3s-6-31.4-15.9-43c3.6,33.2-12.3,59.2-17.2,66.3,6.8,4,14.8,7.5,24.1,10ZM146.8,660.2c26.9,11.6,58.8,11.6,85.3,0,13.2-5.7,27.6-8.6,42-8.7-.2-2.6-.4-5.1-.4-7.8s0-1.5.1-2.2c-15.7,0-31.4,3.3-45.7,9.5-24,10.5-52.9,10.5-77.3,0-15-6.5-30.4-9.9-46.1-10.2l-10.2,10.2c17.9-1.2,35.3,1.9,52.3,9.2ZM573,121.5l7.8-7.8c-2.5-.9-5-1.9-7.5-2.9-26.9-11.6-58.8-11.6-85.3,0-16.5,7.2-35,10-53.1,8.2-1.9,3.2-3.9,6.4-6.2,9.3,21.3,3,43.6.2,63.2-8.4,24-10.5,52.9-10.5,77.3,0,1.3.7,2.6,1.2,3.8,1.6ZM551.5,257.3l16,16v-31.3h82.3v236h-82.3v-31.3l-16,16v31.3h114.3V226h-114.3v31.3ZM569.2,651c-24.2,10.6-53.1,10.6-77.3,0-14.3-6.3-30-9.4-45.7-9.5,0,.7.1,1.5.1,2.2,0,2.6-.1,5.2-.4,7.8,14.4,0,28.8,3,42,8.7,13.4,5.8,28,8.7,42.6,8.7s29.3-2.9,42.6-8.7c13.4-5.8,31.9-10.3,51.6-9.9l-9.8-9.8c-17.4,1-33.5,5.2-45.7,10.5ZM675.8,297.9v16h28.2v92h-28.2v16h44.2v-124h-44.2ZM501.4,512.7l150.9,150.9,11.3-11.3-150.9-150.9-11.3,11.3ZM228.1,702.1c-24.2,10.6-53.1,10.6-77.3,0-17.9-7.6-36.1-10.9-54.7-10.1l10,10c13.8.6,27.5,3.6,40.8,9.3,26.7,11.7,58.6,11.7,85.3,0,21.1-9.2,45.3-11.1,67.7-5.8-3.8-3.7-7.2-7.7-10.2-12-20.9-2.6-42.5.2-61.6,8.6ZM491.9,17.9c24.2-10.6,53.1-10.6,77.3,0,17.9,7.6,36.1,10.9,54.7,10.1l-10-10c-13.8-.6-27.5-3.6-40.8-9.3-26.7-11.7-58.6-11.7-85.3,0-21.1,9.2-45.3,11.1-67.7,5.8,3.8,3.7,7.2,7.7,10.2,12,21,2.6,42.5-.2,61.6-8.6ZM283.7,76.3c0-42.1,34.2-76.3,76.3-76.3s76.3,34.2,76.3,76.3-34.2,76.3-76.3,76.3-76.3-34.2-76.3-76.3ZM354.2,76.8c-2.7-3.6-9-11-19.1-18.4-4.4,6.4-22.9,36.3-13.3,72,8,5.7,17.4,9.6,27.5,11.3-7.5-31.8,1.4-56.7,4.9-64.9ZM422.5,98.4c-27,19.8-57.4,19-66.1,18.3,0,7.8.9,16.5,3.4,25.8h.2c28.8.1,53.4-18.4,62.5-44.1ZM422,52.9c-23.8,22.4-49.8,27.1-58.7,28.1-1.7,4.1-5.1,13.3-6.4,25.7,7.7.6,42.9,1.6,69.1-24.5.2-2,.3-4,.3-6,0-8.1-1.5-16-4.3-23.3ZM348,11.1c30.6,13.5,45.2,40.2,48.9,48.1,6.8-3.9,13.9-9,20.7-15.8-11.6-20-33-33.4-57.6-33.4s-8.1.4-12,1.1ZM308.7,34.3c31.3,9.4,48.4,29.5,53.7,36.7,4.4-.5,14-2.2,25.5-7.3-3.4-7-20-38-55.7-47.6-9.1,4.3-17.1,10.5-23.5,18.2ZM302.7,43c-5.7,9.8-9,21.2-9,33.3s6,31.4,15.9,43c-3.6-33.3,12.2-59.2,17.2-66.3-6.8-4-14.8-7.5-24.1-10ZM573.2,59.8c-26.9-11.6-58.8-11.6-85.3,0-13.2,5.7-27.6,8.6-42,8.7.2,2.6.4,5.1.4,7.8s0,1.5-.1,2.2c15.7,0,31.4-3.3,45.7-9.5,24-10.5,52.9-10.5,77.3,0,15,6.5,30.4,9.9,46.1,10.2l10.2-10.2c-17.8,1.2-35.3-1.9-52.3-9.2ZM463.3,169.2l8.5,8.5c6.9-1.6,13.7-3.7,20.1-6.6,12.3-5.4,25.9-8,39.4-7.9l9.5-9.5c-3.4-.3-6.8-.5-10.3-.5-14.6,0-29.3,2.9-42.6,8.7-7.8,3.5-16.1,5.9-24.6,7.3ZM168.5,462.7l-16-16v31.3h-82.3v-236h82.3v31.3l16-16v-31.3H54.2v268h114.3v-31.3h0ZM218.6,207.3L67.7,56.3l-11.4,11.4,150.9,150.9,11.4-11.3ZM150.8,17.9c24.2-10.6,53.1-10.6,77.3,0,19.1,8.4,40.7,11.2,61.5,8.6,3-4.3,6.5-8.3,10.2-12-22.4,5.3-46.7,3.4-67.7-5.8-13.4-5.8-28-8.7-42.6-8.7s-29.4,3-42.7,8.8c-11,4.8-25.5,8.7-41.2,9.7l-10.2,10.2c21.1.3,41-4.5,55.4-10.8ZM0,422.1h44.2v-16h-28.2v-92h28.2v-16H0v124ZM150.8,69c24.2-10.6,53.1-10.6,77.3,0,14.3,6.3,30,9.4,45.7,9.5,0-.7-.1-1.5-.1-2.2,0-2.6.1-5.2.4-7.8-14.4,0-28.8-3-42-8.7-13.4-5.8-28-8.7-42.6-8.7s-29.3,2.9-42.6,8.7c-13.4,5.8-31.9,10.3-51.6,9.9l9.8,9.8c17.4-1,33.5-5.2,45.7-10.5Z"/>
  </g>
</svg>