<svg width="127" height="133" viewBox="0 0 127 133" fill="none" xmlns="http://www.w3.org/2000/svg">
<path d="M9.6592 82.8987C8.76807 82.5049 7.80576 82.4593 6.83663 82.4593H3.65625V93.4459H5.51554C5.51554 92.8239 5.47069 92.1777 5.76123 91.5969C6.2302 90.6616 7.32217 90.2124 8.2757 89.7882C9.29846 89.3344 10.4324 88.8914 11.1109 88.0116C11.7125 87.2321 11.8763 86.1993 11.7008 85.2677C11.499 84.2027 10.7054 83.3614 9.6592 82.8987ZM9.56755 87.0988C9.12589 87.7056 8.37905 88.0466 7.68682 88.3634C6.93121 88.7097 6.15317 89.0534 5.51554 89.5725V84.0478H7.2783C8.26498 84.0478 9.35208 84.3262 9.74207 85.2569C9.97997 85.8243 9.93902 86.586 9.56755 87.0988Z" fill="white"/>
<path d="M23.331 82.7636C21.7203 81.9277 19.4115 82.1747 18.1665 83.4625C17.561 84.0881 17.2539 84.8936 17.1993 85.7214C17.1857 85.9308 17.1905 93.4459 17.1905 93.4459H19.0313V89.8061C20.1155 89.6799 21.3293 89.7765 22.239 90.3833C23.0541 90.9266 23.4119 91.7821 23.4138 92.6861C23.4138 92.9393 23.4138 93.4459 23.4138 93.4459H25.2556V86.0785C25.2536 84.7271 24.6501 83.4482 23.331 82.7636ZM23.3124 89.3219C22.2185 88.3034 20.5406 87.9472 19.0313 88.1683V86.373C19.0313 86.0427 19.0225 85.7125 19.1152 85.3894C19.2916 84.7701 19.8045 84.259 20.4675 84.055C21.1587 83.8411 21.9592 83.9378 22.5461 84.3396C23.135 84.7432 23.407 85.3634 23.4138 86.0257C23.4187 86.5412 23.4138 87.0576 23.4138 87.5731V89.4284C23.3797 89.3935 23.3485 89.355 23.3124 89.3219Z" fill="white"/>
<path d="M37.9145 89.3639C37.702 89.2601 37.4748 89.1742 37.2369 89.1053C37.8277 88.8073 38.4127 88.4394 38.8261 87.9427C39.2093 87.4818 39.4277 86.9502 39.4969 86.3756C39.6402 85.171 39.2112 84.0228 38.131 83.288C36.6919 82.3071 34.8716 82.4593 33.182 82.4593H31.4241V93.4459H33.2834C33.2834 93.1201 33.2707 92.7917 33.2873 92.4659C33.3243 91.7401 33.6734 91.0393 34.3646 90.6509C35.0403 90.2723 35.9626 90.2276 36.6831 90.5238C37.4095 90.8227 37.8804 91.4635 37.9984 92.1759C38.0676 92.5912 38.0344 93.0271 38.0344 93.4459H39.9122C39.9122 92.8427 39.9483 92.2287 39.803 91.6363C39.5622 90.6599 38.8758 89.8356 37.9145 89.3639ZM35.1066 84.0478C36.2902 84.0478 37.4875 84.5785 37.6162 85.7671C37.6786 86.339 37.5421 86.9055 37.1277 87.3449C36.6743 87.8246 35.9987 88.1146 35.3864 88.3849C34.6435 88.7133 33.8976 89.0552 33.2834 89.568V84.0478H35.1066Z" fill="white"/>
<path d="M45.6941 83.9974C46.3005 83.8489 46.9284 83.78 47.5534 83.7442V82.459H45.6941V83.9974Z" fill="white"/>
<path d="M45.6941 84.9608V93.446H47.5534V84.7075C46.9284 84.7317 46.2996 84.8158 45.6941 84.9608Z" fill="white"/>
<path d="M59.9646 88.1724C59.2977 87.6918 58.4992 87.4152 57.7104 87.1503C56.9792 86.906 56.129 86.6473 55.6006 86.0934C55.1121 85.5823 55.2213 84.7724 55.7244 84.3079C56.245 83.8282 57.0806 83.7208 57.766 83.9204C58.5401 84.145 59.0072 84.7849 59.0072 85.5188H60.8479C60.8479 84.7133 60.5671 83.9392 59.9636 83.3458C59.3786 82.7712 58.5723 82.4293 57.729 82.3282C56.8525 82.2226 55.9438 82.3273 55.1687 82.7327C54.4413 83.1122 53.8281 83.7154 53.5677 84.4556C53.3191 85.1626 53.3737 86.045 53.7696 86.7001C54.2112 87.4295 55.0088 87.8681 55.8229 88.1876C56.7082 88.5339 57.729 88.7469 58.5206 89.2651C58.8395 89.4736 59.1047 89.7412 59.1992 90.0983C59.2919 90.4474 59.2577 90.8412 59.0813 91.1633C58.6513 91.9482 57.5808 92.1881 56.7043 92.0333C55.7215 91.8605 55.0117 91.107 55.0117 90.1834H53.1885C53.1885 91.0774 53.5053 91.9205 54.2025 92.5568C54.8927 93.1887 55.8511 93.5296 56.8135 93.6003C57.8226 93.6746 58.8638 93.4867 59.6994 92.9443C60.4677 92.444 60.9864 91.669 61.0868 90.8054C61.2028 89.7976 60.8479 88.8096 59.9646 88.1724Z" fill="white"/>
<path d="M77.2918 88.4089C77.7032 87.94 78.1039 87.4459 78.3759 86.8946C78.6441 86.3505 78.7406 85.7482 78.6684 85.1548C78.531 84.0254 77.6798 83.0883 76.5703 82.623C75.4364 82.1477 74.008 82.1701 72.8985 82.691C71.7782 83.2163 70.9749 84.2196 70.9076 85.3884C70.8384 86.5832 71.4438 87.6393 72.4676 88.3579L73.5166 87.1247C73.1403 86.7944 72.842 86.3944 72.7562 85.9147C72.6733 85.4529 72.7591 84.9866 73.0652 84.6062C73.6658 83.8607 74.8719 83.6361 75.764 84.0478C76.2095 84.2527 76.5839 84.6089 76.7438 85.0465C76.9105 85.5021 76.8316 86.0256 76.62 86.457C76.4055 86.8929 76.0643 87.2652 75.7415 87.6357C74.4984 89.0632 73.2553 90.4897 72.0132 91.9163C71.5696 92.4264 71.125 92.9366 70.6814 93.4458H79.0964V91.8743H74.2693L77.2918 88.4089Z" fill="white"/>
<path d="M94.7846 83.9297C92.9302 82.2659 90.0257 81.8185 87.6721 82.8155C85.2981 83.8214 83.8687 86.1349 84.1154 88.5191C84.3572 90.8567 86.2604 92.8606 88.7339 93.436C91.2435 94.0196 93.9968 93.1604 95.4993 91.2058C97.0095 89.2404 96.9657 86.4812 95.3891 84.5598C95.2048 84.336 95.003 84.1257 94.7846 83.9297ZM94.3703 89.5331C93.6439 91.0984 91.9299 92.1043 90.0725 92.0014C88.2727 91.903 86.7098 90.7189 86.1882 89.1447C85.653 87.5284 86.2886 85.7232 87.7492 84.6994C89.2165 83.6719 91.2942 83.6352 92.8103 84.5991C94.5048 85.6767 95.1785 87.7879 94.3703 89.5331Z" fill="white"/>
<path d="M108.448 88.4089C108.859 87.94 109.26 87.4459 109.532 86.8946C109.8 86.3505 109.897 85.7482 109.824 85.1548C109.686 84.0254 108.836 83.0883 107.726 82.623C106.592 82.1477 105.164 82.1701 104.055 82.691C102.934 83.2163 102.131 84.2196 102.064 85.3884C101.994 86.5832 102.599 87.6393 103.624 88.3579L104.673 87.1247C104.296 86.7944 103.998 86.3944 103.912 85.9147C103.829 85.4529 103.914 84.9866 104.221 84.6062C104.822 83.8607 106.028 83.6361 106.92 84.0478C107.366 84.2527 107.74 84.6089 107.9 85.0465C108.067 85.5021 107.988 86.0256 107.776 86.457C107.562 86.8929 107.22 87.2652 106.897 87.6357C105.654 89.0632 104.411 90.4897 103.169 91.9163C102.725 92.4264 102.281 92.9366 101.837 93.4458H110.252V91.8743H105.425L108.448 88.4089Z" fill="white"/>
<path d="M121.558 85.4002V89.1242C120.673 88.5451 119.566 88.3688 118.64 87.8596C117.839 87.4202 117.585 86.6514 117.581 85.8379C117.576 85.0413 117.581 82.4593 117.581 82.4593H115.721C115.721 82.4593 115.719 84.746 115.721 85.8898C115.723 87.0604 116.036 88.205 117.081 88.9586C117.724 89.4231 118.498 89.7095 119.266 89.9556C119.95 90.1758 120.677 90.4514 121.147 90.9821C121.517 91.4001 121.558 91.9004 121.558 92.4159V93.446H123.344V85.4002H121.558Z" fill="white"/>
<path d="M62.6817 120.623C62.6817 125.604 58.2797 129.644 52.8529 129.644C47.4252 129.644 43.0271 125.604 43.0271 120.623C43.0271 115.64 47.4252 111.602 52.8529 111.602C58.2797 111.602 62.6817 115.64 62.6817 120.623ZM52.8529 113.106C48.331 113.106 44.6651 116.472 44.6651 120.623C44.6651 124.773 48.331 128.139 52.8529 128.139C57.3769 128.139 61.0438 124.773 61.0438 120.623C61.0438 116.472 57.3769 113.106 52.8529 113.106Z" fill="#FCB030"/>
<path d="M83.9747 120.623C83.9747 125.604 79.5736 129.644 74.1469 129.644C68.7192 129.644 64.3191 125.604 64.3191 120.623C64.3191 115.64 68.7192 111.602 74.1469 111.602C79.5736 111.602 83.9747 115.64 83.9747 120.623ZM74.1469 113.106C69.623 113.106 65.958 116.472 65.958 120.623C65.958 124.773 69.623 128.139 74.1469 128.139C78.6698 128.139 82.3367 124.773 82.3367 120.623C82.3367 116.472 78.6698 113.106 74.1469 113.106Z" fill="#93FAC6"/>
<path d="M42.2094 103.336C36.7807 103.336 32.3816 107.372 32.3816 112.354C32.3816 117.336 36.7807 121.375 42.2094 121.375C42.496 121.375 42.7778 121.359 43.0596 121.338C43.0401 121.102 43.0264 120.864 43.0264 120.623C43.0264 120.353 43.043 120.092 43.0664 119.831C42.7837 119.856 42.499 119.869 42.2094 119.869C37.6855 119.869 34.0186 116.506 34.0186 112.354C34.0186 108.202 37.6855 104.836 42.2094 104.836C46.7313 104.836 50.3982 108.202 50.3982 112.354C50.3982 115.688 48.0329 118.512 44.757 119.497C44.6975 119.865 44.6644 120.242 44.6644 120.623C44.6644 120.779 44.6712 120.931 44.681 121.085C48.9114 120.077 52.0343 116.549 52.0343 112.354C52.0343 107.372 47.6361 103.336 42.2094 103.336Z" fill="#87CBEF"/>
<path d="M84.7922 103.334C79.6287 103.334 75.3983 106.989 74.9995 111.636C75.5533 111.679 76.0954 111.764 76.6199 111.891C76.8802 107.955 80.4399 104.836 84.7922 104.836C89.3171 104.836 92.983 108.202 92.983 112.352C92.983 116.506 89.3171 119.869 84.7922 119.869C80.6885 119.869 77.2858 117.096 76.696 113.479C76.1558 113.317 75.5884 113.206 75.0054 113.149C75.4431 117.756 79.658 121.375 84.7922 121.375C90.2189 121.375 94.619 117.336 94.619 112.352C94.619 107.372 90.2189 103.334 84.7922 103.334Z" fill="#E8384F"/>
<path d="M63.5009 103.334C58.3355 103.334 54.1041 106.993 53.7063 111.636C54.262 111.681 54.8022 111.768 55.3287 111.891C55.589 107.955 59.1467 104.836 63.5009 104.836C68.0239 104.836 71.6898 108.202 71.6898 112.352C71.6898 115.688 69.3245 118.512 66.0505 119.497C65.992 119.867 65.9579 120.242 65.9579 120.623C65.9579 120.779 65.9628 120.931 65.9745 121.085C70.203 120.077 73.3278 116.549 73.3278 112.352C73.3278 107.372 68.9287 103.334 63.5009 103.334Z" fill="white"/>
<path d="M64.3197 120.623C64.3197 120.353 64.3343 120.092 64.3597 119.831C64.076 119.856 63.7903 119.869 63.5007 119.869C59.3941 119.869 55.9943 117.096 55.4006 113.48C54.8604 113.317 54.2969 113.207 53.7139 113.151C54.1516 117.756 58.3655 121.374 63.5007 121.374C63.7874 121.374 64.0711 121.359 64.3509 121.338C64.3294 121.102 64.3197 120.863 64.3197 120.623Z" fill="white"/>
<path d="M67.7176 63.6431C66.69 63.2923 64.9613 63.26 63.4998 64.3519C62.0383 63.26 60.3097 63.2923 59.2821 63.6431C58.4231 63.9366 57.7494 64.1326 56.4839 64.1228C57.7377 66.5222 60.4092 68.177 63.4998 68.177C66.5905 68.177 69.262 66.5222 70.5158 64.1228C69.2503 64.1326 68.5766 63.9366 67.7176 63.6431Z" fill="#FFFFF5"/>
<path d="M63.5008 3.35615C42.3486 3.35615 25.1997 19.0969 25.1997 38.5141C25.1997 55.1578 37.8013 69.1014 54.724 72.7439C41.2761 66.14 35.7929 50.9971 42.2775 38.3127C43.3256 43.3219 46.8833 47.7851 52.1988 50.1012C45.2658 35.2161 50.3708 17.7177 64.6786 8.04042C61.8638 16.8872 66.1869 24.9822 75.4599 31.0939C86.0667 38.0836 86.5152 52.3467 77.1544 60.0569C80.873 59.2621 84.3322 57.3827 86.9159 54.5054C85.3218 62.0446 80.172 68.866 72.2756 72.7439C89.1993 69.1014 101.8 55.1578 101.8 38.5141C101.8 19.0969 84.653 3.35615 63.5008 3.35615Z" fill="#FFFFF5"/>
<path d="M91.4324 70.4465H92.1558V72.7456H92.5039V70.4465H93.2273V70.1466H91.4324V70.4465ZM96.4291 70.1466C95.889 70.1466 95.4581 70.3623 95.2484 70.7185C95.0398 70.3623 94.6089 70.1466 94.0677 70.1466H93.8805V72.7456H94.2296V70.467H94.2423C94.7483 70.467 95.0749 70.7946 95.0749 71.2985V71.9455H95.423V71.2985C95.423 70.7946 95.7496 70.467 96.2546 70.467H96.2673V72.7456H96.6163V70.1466H96.4291Z" fill="#FFFFF5"/>
</svg>
